Coordinates
version=1
nRows=27
nColumns=38
inDegrees=no

Units are S.I. units (second, meters, Newtons, ...)
If the header above contains a line with 'inDegrees', this indicates whether rotational values are in degrees (yes) or radians (no).

endheader
time	pelvis_tilt	pelvis_list	pelvis_rotation	pelvis_tx	pelvis_ty	pelvis_tz	hip_flexion_r	hip_adduction_r	hip_rotation_r	knee_angle_r	ankle_angle_r	subtalar_angle_r	mtp_angle_r	hip_flexion_l	hip_adduction_l	hip_rotation_l	knee_angle_l	ankle_angle_l	subtalar_angle_l	mtp_angle_l	lumbar_extension	lumbar_bending	lumbar_rotation	arm_flex_r	arm_add_r	arm_rot_r	elbow_flex_r	pro_sup_r	wrist_flex_r	wrist_dev_r	arm_flex_l	arm_add_l	arm_rot_l	elbow_flex_l	pro_sup_l	wrist_flex_l	wrist_dev_l
1.15833	0.0216225	0.0310587	-0.0105642	0.970483	1.06107	-0.293061	-0.473748	0.017424	-0.205656	-0.702475	-0.26594	0.0508115	3.48375e-05	0.55382	0.0747263	-0.0844799	-0.338767	0.121242	0.0211036	0.000119339	-0.291474	-0.0932907	0.226829	-0.0784329	-0.371375	0.122449	2.44533	1.9555	0.0223425	-0.00780003	-0.639255	-0.295404	-0.0144109	2.21244	1.69145	0.0428049	0.0219974
1.16667	0.0291806	0.0310702	-0.00342479	0.971147	1.05959	-0.294003	-0.457161	0.0157134	-0.205009	-0.803499	-0.250454	0.0508115	3.48375e-05	0.530884	0.0824244	-0.0800236	-0.305654	0.125085	0.0211036	0.000119339	-0.301836	-0.091813	0.220914	-0.0972976	-0.368657	0.12283	2.42995	1.95411	0.0223425	-0.00780003	-0.619307	-0.300881	-0.010421	2.20906	1.69926	0.0428049	0.0219974
1.175	0.0367022	0.0339005	0.0031755	0.971517	1.05744	-0.295001	-0.43716	0.00988835	-0.205283	-0.908659	-0.238125	0.0508115	3.48375e-05	0.510453	0.091337	-0.0798369	-0.287345	0.123489	0.0211036	0.000119339	-0.312919	-0.09293	0.213156	-0.115648	-0.365326	0.121623	2.41085	1.9515	0.0223425	-0.00780003	-0.596611	-0.306888	-0.00534918	2.20439	1.70479	0.0428049	0.0219974
1.18333	0.0440913	0.0395018	0.00940883	0.971596	1.05462	-0.296079	-0.414503	-0.000253908	-0.207399	-1.01599	-0.228356	0.0508115	3.48375e-05	0.492815	0.101903	-0.0829217	-0.283647	0.116506	0.0211036	0.000119339	-0.324684	-0.0965677	0.203255	-0.133094	-0.361402	0.119252	2.38821	1.94721	0.0223425	-0.00780003	-0.571507	-0.313343	0.000688579	2.19852	1.70672	0.0428049	0.0219974
1.19167	0.0513292	0.047705	0.0154047	0.971378	1.05112	-0.297248	-0.389865	-0.0147914	-0.211904	-1.1238	-0.219942	0.0508115	3.48375e-05	0.478247	0.114429	-0.0880619	-0.29433	0.105196	0.0211036	0.000119339	-0.337176	-0.102528	0.190998	-0.149261	-0.356894	0.116109	2.36207	1.94125	0.0223425	-0.00780003	-0.544236	-0.320186	0.00761167	2.19143	1.70427	0.0428049	0.0219974
1.2	0.0584239	0.0582277	0.0212205	0.970851	1.04697	-0.29851	-0.363746	-0.0336088	-0.218838	-1.23075	-0.211408	0.0508115	3.48375e-05	0.466985	0.129044	-0.0939578	-0.319121	0.091693	0.0211036	0.000119339	-0.350506	-0.110523	0.176293	-0.163795	-0.351777	0.112481	2.33234	1.93421	0.0223425	-0.00780003	-0.514914	-0.327372	0.0153701	2.18294	1.69738	0.0428049	0.0219974
1.20833	0.0654472	0.0706665	0.0268255	0.969995	1.04221	-0.299845	-0.336367	-0.0563079	-0.227691	-1.33577	-0.201382	0.0508115	3.48375e-05	0.45914	0.145683	-0.0993724	-0.357511	0.079058	0.0211036	0.000119339	-0.364795	-0.120199	0.15919	-0.17637	-0.345976	0.108488	2.29872	1.92734	0.0223425	-0.00780003	-0.483525	-0.33485	0.0239434	2.17273	1.68675	0.0428049	0.0219974
1.21667	0.0724804	0.0845255	0.032121	0.968791	1.03697	-0.30121	-0.307632	-0.0821451	-0.23746	-1.43805	-0.188894	0.0508115	3.48375e-05	0.454541	0.164062	-0.1033	-0.408441	0.0708636	0.0211036	0.000119339	-0.380136	-0.131136	0.139884	-0.186723	-0.339366	0.10406	2.26084	1.92244	0.0223425	-0.00780003	-0.449947	-0.342556	0.0333425	2.16036	1.67375	0.0428049	0.0219974
1.225	0.0795789	0.0992384	0.0369704	0.967229	1.03147	-0.302541	-0.27713	-0.110032	-0.246791	-1.53686	-0.173546	0.0508115	3.48375e-05	0.452589	0.18369	-0.105127	-0.469982	0.0705302	0.0211036	0.000119339	-0.396531	-0.142863	0.118707	-0.194699	-0.331797	0.098959	2.21832	1.92157	0.0223425	-0.00780003	-0.41401	-0.350405	0.0436085	2.14536	1.66002	0.0428049	0.0219974
1.23333	0.0867443	0.114186	0.0412347	0.965309	1.026	-0.303764	-0.244193	-0.138599	-0.254187	-1.63155	-0.155526	0.0508115	3.48375e-05	0.452212	0.203899	-0.104695	-0.539195	0.0805744	0.0211036	0.000119339	-0.413841	-0.154864	0.0960935	-0.200312	-0.32313	0.0928424	2.17093	1.92663	0.0223425	-0.00780003	-0.375579	-0.358276	0.0547941	2.12732	1.64717	0.0428049	0.0219974
1.24167	0.0938754	0.128726	0.0448034	0.963051	1.02079	-0.304813	-0.208001	-0.166316	-0.258234	-1.72137	-0.135484	0.0508115	3.48375e-05	0.451947	0.223909	-0.10224	-0.612282	0.102029	0.0211036	0.000119339	-0.43176	-0.166576	0.0725503	-0.2038	-0.313306	0.0853662	2.1188	1.93887	0.0223425	-0.00780003	-0.33465	-0.36601	0.0669184	2.10607	1.63638	0.0428049	0.0219974
1.25	0.100766	0.142232	0.0476214	0.960495	1.01594	-0.305655	-0.167727	-0.191656	-0.257812	-1.80552	-0.114352	0.0508115	3.48375e-05	0.450162	0.242902	-0.0982035	-0.685029	0.134259	0.0211036	0.000119339	-0.449806	-0.177396	0.0486061	-0.205657	-0.302412	0.0762985	2.06261	1.95851	0.0223425	-0.00780003	-0.291451	-0.373398	0.079897	2.08177	1.62828	0.0428049	0.0219974
1.25833	0.107138	0.154131	0.0497083	0.957705	1.01147	-0.306304	-0.1227	-0.213278	-0.252266	-1.88309	-0.0931517	0.0508115	3.48375e-05	0.445324	0.260129	-0.0930237	-0.753402	0.175221	0.0211036	0.000119339	-0.467372	-0.186684	0.0247503	-0.206634	-0.290741	0.0656224	2.00369	1.98445	0.0223425	-0.00780003	-0.246523	-0.38018	0.0934587	2.05512	1.62295	0.0428049	0.0219974
1.26667	0.112678	0.163938	0.0511684	0.954754	1.0074	-0.306811	-0.0725551	-0.230185	-0.241504	-1.95309	-0.0728438	0.0508115	3.48375e-05	0.436234	0.274994	-0.08698	-0.814096	0.222037	0.0211036	0.000119339	-0.483788	-0.193806	0.00136164	-0.207691	-0.278811	0.0536033	1.94409	2.01434	0.0223425	-0.00780003	-0.200763	-0.386057	0.107076	2.02734	1.62002	0.0428049	0.0219974
1.275	0.117104	0.171296	0.0521904	0.951724	1.00379	-0.307244	-0.0173555	-0.241834	-0.226019	-2.01454	-0.0542158	0.0508115	3.48375e-05	0.422132	0.2871	-0.0801345	-0.86485	0.271615	0.0211036	0.000119339	-0.498416	-0.198174	-0.0213589	-0.209897	-0.267331	0.0408084	1.88642	2.04482	0.0223425	-0.00780003	-0.155409	-0.390717	0.119943	2.00014	1.61893	0.0428049	0.0219974
1.28333	0.120216	0.175999	0.053036	0.948715	1.00073	-0.307682	0.0423673	-0.248159	-0.206831	-2.06649	-0.0378067	0.0508115	3.48375e-05	0.402696	0.296232	-0.0723627	-0.904498	0.321155	0.0211036	0.000119339	-0.510715	-0.199312	-0.0434162	-0.214321	-0.257114	0.028043	1.83356	2.07224	0.0223425	-0.00780003	-0.111959	-0.39389	0.131026	1.97553	1.6191	0.0428049	0.0219974
1.29167	0.12192	0.17798	0.0540107	0.945851	0.998319	-0.308203	0.105642	-0.24952	-0.185356	-2.10812	-0.023855	0.0508115	3.48375e-05	0.377941	0.302302	-0.0634278	-0.932787	0.368399	0.0211036	0.000119339	-0.520285	-0.196893	-0.0649981	-0.221902	-0.248948	0.0162349	1.78833	2.09329	0.0223425	-0.00780003	-0.0720163	-0.395392	0.139203	1.95561	1.62017	0.0428049	0.0219974
1.3	0.122223	0.177271	0.0554188	0.943265	0.996584	-0.308883	0.17117	-0.246573	-0.163244	-2.13876	-0.0122719	0.0508115	3.48375e-05	0.348123	0.30526	-0.0530717	-0.9501	0.411692	0.0211036	0.000119339	-0.526858	-0.19076	-0.0863952	-0.233358	-0.243472	0.00625699	1.75304	2.1057	0.0223425	-0.00780003	-0.0371028	-0.395172	0.143455	1.94218	1.62208	0.0428049	0.0219974
1.30833	0.121193	0.173952	0.0575136	0.941079	0.995543	-0.309764	0.237492	-0.240122	-0.14219	-2.15799	-0.00265815	0.0508115	3.48375e-05	0.313648	0.305023	-0.041104	-0.957159	0.449878	0.0211036	0.000119339	-0.530264	-0.180924	-0.107894	-0.249114	-0.241073	-0.00126456	1.72914	2.10882	0.0223425	-0.00780003	-0.00846317	-0.393321	0.143081	1.93654	1.62503	0.0428049	0.0219974
1.31667	0.118923	0.168106	0.0604545	0.939394	0.995205	-0.310844	0.303158	-0.230995	-0.123765	-2.16565	0.00561841	0.0508115	3.48375e-05	0.275017	0.301445	-0.0274824	-0.954795	0.482124	0.0211036	0.000119339	-0.530389	-0.167548	-0.12968	-0.269276	-0.24183	-0.00610587	1.71708	2.10379	0.0223425	-0.00780003	0.0130894	-0.390052	0.137853	1.93924	1.62935	0.0428049	0.0219974
1.325	0.115504	0.159814	0.0642834	0.938292	0.995577	-0.312082	0.366854	-0.219956	-0.109289	-2.16187	0.0132863	0.0508115	3.48375e-05	0.232784	0.294336	-0.0123722	-0.943772	0.507705	0.0211036	0.000119339	-0.527168	-0.150927	-0.151794	-0.293652	-0.245525	-0.00851371	1.71622	2.09332	0.0223425	-0.00780003	0.0272575	-0.385659	0.128094	1.95003	1.63534	0.0428049	0.0219974
1.33333	0.11103	0.149167	0.0689217	0.937834	0.996652	-0.313419	0.42749	-0.207675	-0.0997455	-2.14699	0.0209946	0.0508115	3.48375e-05	0.187517	0.283519	0.00381487	-0.924706	0.525805	0.0211036	0.000119339	-0.520599	-0.131466	-0.174114	-0.321799	-0.251682	-0.00917493	1.72505	2.08093	0.0223425	-0.00780003	0.0342629	-0.380454	0.114637	1.96795	1.64306	0.0428049	0.0219974
1.34167	0.10559	0.136296	0.0741755	0.938056	0.9984	-0.314799	0.484218	-0.194707	-0.0957409	-2.12156	0.0291437	0.0508115	3.48375e-05	0.139768	0.268894	0.0204064	-0.898041	0.535383	0.0211036	0.000119339	-0.510773	-0.109646	-0.196384	-0.353109	-0.259653	-0.00910159	1.74145	2.07006	0.0223425	-0.00780003	0.0347756	-0.374718	0.0987063	1.99151	1.65223	0.0428049	0.0219974
1.35	0.099289	0.121382	0.0797453	0.938966	1.00078	-0.316167	0.536438	-0.181474	-0.0974883	-2.08622	0.0377774	0.0508115	3.48375e-05	0.0900615	0.250497	0.036481	-0.864086	0.535134	0.0211036	0.000119339	-0.497893	-0.0859915	-0.218229	-0.386905	-0.268705	-0.00946602	1.76304	2.06331	0.0223425	-0.00780003	0.0297925	-0.368663	0.0817308	2.01888	1.66228	0.0428049	0.0219974
1.35833	0.0922353	0.104648	0.0852414	0.940542	1.00373	-0.317471	0.583767	-0.168234	-0.104817	-2.04167	0.0465703	0.0508115	3.48375e-05	0.0388947	0.228547	0.0509119	-0.823104	0.52357	0.0211036	0.000119339	-0.48228	-0.061049	-0.239187	-0.422534	-0.278102	-0.0114271	1.78754	2.06192	0.0223425	-0.00780003	0.0204933	-0.362406	0.0651441	2.0482	1.67241	0.0428049	0.0219974
1.36667	0.0845301	0.0863601	0.0902041	0.94274	1.0072	-0.318663	0.626017	-0.155054	-0.1172	-1.98856	0.0549171	0.0508115	3.48375e-05	-0.013236	0.203458	0.062452	-0.775428	0.499204	0.0211036	0.000119339	-0.464349	-0.035348	-0.258738	-0.45942	-0.287166	-0.015978	1.81299	2.06571	0.0223425	-0.00780003	0.00809402	-0.355983	0.0501968	2.07777	1.68188	0.0428049	0.0219974
1.375	0.0762521	0.0668369	0.0941451	0.945491	1.0111	-0.319702	0.663152	-0.141799	-0.133803	-1.92746	0.0620938	0.0508115	3.48375e-05	-0.0657989	0.175854	0.0698638	-0.721587	0.460817	0.0211036	0.000119339	-0.444572	-0.00938278	-0.276353	-0.497093	-0.295325	-0.023844	1.83794	2.07338	0.0223425	-0.00780003	-0.0062768	-0.34936	0.0378174	2.10622	1.69017	0.0428049	0.0219974
